<?xml version="1.0" encoding="UTF-8"?>
<svg xmlns="http://www.w3.org/2000/svg" viewBox="0 0 375.36 198.48">
  <defs>
    <style>
      .cls-1 {
        fill: #ff6e4f;
      }

      .cls-2 {
        fill: #153cff;
      }

      .cls-3 {
        stroke-width: .1px;
      }

      .cls-3, .cls-4, .cls-5 {
        fill: none;
        stroke: #000;
        stroke-miterlimit: 10;
      }

      .cls-4 {
        opacity: .42;
      }

      .cls-4, .cls-5 {
        stroke-width: .25px;
      }
    </style>
  </defs>
  <g id="Layer_1" data-name="Layer 1">
    <path class="cls-4" d="m363.94,68.34h11.31"/>
    <rect class="cls-2" x="169.13" y="75.09" width="93" height="83"/>
    <path class="cls-1" d="m169.25,106.07l21.12-45.12h9.6l21.25,45.12h-11.84l-5.44-12.42,4.54,3.26h-26.5l4.48-3.26-5.38,12.42h-11.84Zm25.86-32.96l-7.49,17.86-1.79-3.01h18.75l-1.6,3.01-7.55-17.86h-.32Z"/>
    <path class="cls-1" d="m149.41,53.74l21.12-45.12h9.6l21.25,45.12h-11.84l-5.44-12.42,4.54,3.26h-26.5l4.48-3.26-5.38,12.42h-11.84Zm25.86-32.96l-7.49,17.86-1.79-3.01h18.75l-1.6,3.01-7.55-17.86h-.32Z"/>
    <path class="cls-1" d="m271.35,60.94c-7.04,15.05-14.08,30.09-21.12,45.14h-9.14c-3.46-9.91-6.91-19.82-10.37-29.73h1.47c-3.53,9.91-7.06,19.82-10.59,29.73h-9.49c-7.08-15.04-14.17-30.08-21.25-45.12h12.16c5.24,10.84,10.47,21.68,15.71,32.52-.98,0-1.96,0-2.94,0l11.73-32.53h8.69l10.52,32.53h-2.92l16.24-32.54h11.31Z"/>
    <path class="cls-1" d="m271.35,8.61c-7.04,15.05-14.08,30.09-21.12,45.14h-9.14c-3.46-9.91-6.91-19.82-10.37-29.73h1.47c-3.53,9.91-7.06,19.82-10.59,29.73h-9.49c-7.08-15.04-14.17-30.08-21.25-45.12h12.16c5.24,10.84,10.47,21.68,15.71,32.52-.98,0-1.96,0-2.94,0l11.73-32.53h8.69l10.52,32.53h-2.92l16.24-32.54h11.31Z"/>
    <path class="cls-1" d="m212.16,158.38v-45.12h22.14c5.21,0,9.13,1.28,11.78,3.84,2.65,2.52,3.97,5.95,3.97,10.3s-1.32,7.74-3.97,10.3c-2.65,2.56-6.57,3.84-11.78,3.84h-10.3v16.83h-11.84Zm11.84-25.92h8.77c2.01,0,3.5-.43,4.48-1.28.98-.9,1.47-2.15,1.47-3.78s-.49-2.88-1.47-3.78c-.98-.9-2.47-1.34-4.48-1.34h-8.77v10.18Z"/>
    <path class="cls-1" d="m250.49,158.38v-45.12h11.84v45.12h-11.84Z"/>
    <path class="cls-1" d="m169.25,158.38v-45.12h18.18c5.33,0,9.83.92,13.5,2.75,3.67,1.79,6.44,4.37,8.32,7.74,1.92,3.33,2.88,7.34,2.88,12.03s-.96,8.66-2.88,12.03c-1.88,3.37-4.65,5.97-8.32,7.81-3.67,1.83-8.17,2.75-13.5,2.75h-18.18Zm11.84-9.6h5.57c4.65,0,8.09-1.07,10.3-3.2,2.26-2.13,3.39-5.4,3.39-9.79s-1.13-7.7-3.39-9.79c-2.22-2.13-5.65-3.2-10.3-3.2h-5.57v25.98Z"/>
    <rect class="cls-2" x="42.5" y="75.09" width="92.54" height="83.01"/>
    <path class="cls-1" d="m85.52,158.09v-44.83h22.14c5.21,0,9.13,1.27,11.78,3.82,2.65,2.5,3.97,5.91,3.97,10.24s-1.32,7.69-3.97,10.24c-2.65,2.54-6.57,3.82-11.78,3.82h-10.3v16.72h-11.84Zm11.84-25.76h8.77c2.01,0,3.5-.42,4.48-1.27.98-.89,1.47-2.14,1.47-3.75s-.49-2.86-1.47-3.75c-.98-.89-2.47-1.34-4.48-1.34h-8.77v10.11Z"/>
    <path class="cls-1" d="m123.22,158.13v-45.12h11.84v45.12h-11.84Z"/>
    <path class="cls-1" d="m42.62,158.38v-45.12h18.18c5.33,0,9.83.92,13.5,2.75,3.67,1.79,6.44,4.37,8.32,7.74,1.92,3.33,2.88,7.34,2.88,12.03s-.96,8.66-2.88,12.03c-1.88,3.37-4.65,5.97-8.32,7.81-3.67,1.83-8.17,2.75-13.5,2.75h-18.18Zm11.84-9.6h5.57c4.65,0,8.09-1.07,10.3-3.2,2.26-2.13,3.39-5.4,3.39-9.79s-1.13-7.7-3.39-9.79c-2.22-2.13-5.65-3.2-10.3-3.2h-5.57v25.98Z"/>
    <path d="m171.28,171.09l3.43-7.75h.89l3.49,7.75h-1.06l-.96-2.2.44.26h-4.72l.48-.26-.96,2.2h-1.05Zm3.86-6.61l-1.72,4.07-.26-.23h3.99l-.21.23-1.76-4.07h-.04Zm6.74,6.71c-.45,0-.87-.06-1.25-.18-.38-.12-.7-.29-.95-.51l.32-.69c.27.21.57.36.89.47.33.1.67.15,1.01.15.42,0,.73-.08.95-.23.22-.15.33-.36.33-.62,0-.2-.07-.37-.21-.49-.14-.12-.36-.22-.66-.28l-1.05-.21c-.47-.11-.83-.29-1.07-.53-.23-.25-.35-.57-.35-.96,0-.32.09-.61.26-.86.18-.26.43-.46.75-.59.33-.15.71-.22,1.15-.22.4,0,.78.06,1.12.18.35.12.64.29.87.52l-.33.67c-.23-.2-.48-.35-.77-.45-.28-.11-.56-.17-.86-.17-.43,0-.74.08-.95.25-.21.16-.31.37-.31.64,0,.2.06.36.19.49.12.12.33.22.61.29l1.05.21c.49.1.86.27,1.11.51s.37.55.37.94c0,.34-.1.64-.29.89-.18.25-.44.44-.78.57-.33.13-.72.2-1.17.2Zm3.6-.1v-5.53h1v5.53h-1Zm-.09-6.74v-1.08h1.19v1.08h-1.19Zm4.87,6.84c-.48,0-.91-.11-1.28-.34-.37-.23-.65-.56-.86-.99-.21-.43-.31-.95-.31-1.54s.1-1.1.31-1.53c.21-.43.49-.76.86-.99.37-.23.79-.34,1.28-.34s.92.12,1.28.37c.37.24.61.58.73,1h-.13l.12-1.28h.97c-.02.22-.04.44-.07.66-.01.22-.02.44-.02.65v4.22h-1v-1.26h.12c-.12.42-.36.75-.73,1-.36.24-.78.36-1.27.36Zm.23-.79c.5,0,.9-.18,1.2-.53.3-.35.45-.87.45-1.55s-.15-1.19-.45-1.54c-.3-.35-.7-.52-1.2-.52s-.9.17-1.21.52c-.3.34-.45.86-.45,1.54s.15,1.2.45,1.55c.3.35.7.53,1.21.53Zm4.32.69v-4.22c0-.21,0-.43-.02-.65-.01-.22-.04-.44-.07-.66h.97l.11,1.19h-.13c.17-.42.43-.74.78-.96.35-.22.76-.33,1.23-.33.65,0,1.14.18,1.47.54.33.35.5.9.5,1.65v3.44h-1v-3.39c0-.51-.1-.87-.3-1.09-.2-.23-.51-.34-.92-.34-.5,0-.89.15-1.19.45-.29.3-.43.71-.43,1.22v3.15h-1Zm8.71,0l-2.72-7.75h1.08l2.3,6.84h-.4l2.44-6.84h.8l2.29,6.84h-.35l2.38-6.84h1.01l-2.74,7.75h-.89l-2.23-6.54h.23l-2.32,6.54h-.88Zm11.7.1c-.54,0-1.01-.11-1.41-.34-.4-.24-.7-.57-.92-.99-.22-.43-.33-.95-.33-1.54s.11-1.09.33-1.52c.22-.43.53-.76.92-.99.4-.24.87-.35,1.41-.35s1.01.12,1.41.35c.4.23.71.56.92.99.22.43.33.93.33,1.52s-.11,1.11-.33,1.54c-.21.43-.52.76-.92.99-.4.23-.87.34-1.41.34Zm0-.79c.5,0,.9-.18,1.2-.53.3-.35.45-.87.45-1.55s-.15-1.19-.45-1.54c-.3-.35-.7-.52-1.2-.52s-.91.17-1.21.52c-.29.34-.44.86-.44,1.54s.15,1.2.44,1.55c.3.35.7.53,1.21.53Zm4.01.69v-4.22c0-.21,0-.43-.02-.65-.01-.22-.04-.44-.07-.66h.97l.11,1.19h-.13c.15-.41.38-.73.7-.95.32-.23.71-.34,1.15-.34s.83.11,1.12.33c.29.21.49.55.59,1.01h-.17c.14-.41.39-.74.74-.98.35-.24.76-.36,1.23-.36.61,0,1.07.18,1.38.54.31.35.46.9.46,1.65v3.44h-1v-3.39c0-.51-.09-.87-.26-1.09-.18-.23-.45-.34-.84-.34-.45,0-.8.15-1.06.46-.26.3-.39.71-.39,1.23v3.12h-1v-3.39c0-.51-.09-.87-.26-1.09-.17-.23-.45-.34-.84-.34-.45,0-.8.15-1.06.46-.25.3-.37.71-.37,1.23v3.12h-1Zm12.23.1c-.88,0-1.58-.25-2.09-.76-.51-.51-.76-1.2-.76-2.09,0-.59.11-1.09.33-1.52.23-.43.54-.77.93-1,.4-.24.86-.36,1.39-.36s.94.11,1.29.33c.35.21.62.52.8.91.18.4.27.86.27,1.41v.33h-4.23v-.59h3.55l-.19.14c0-.57-.13-1.02-.39-1.33-.25-.32-.62-.47-1.11-.47-.54,0-.95.19-1.24.56-.29.37-.44.87-.44,1.51v.1c0,.67.17,1.18.5,1.53.34.35.8.52,1.4.52.33,0,.64-.05.92-.14.29-.1.56-.25.82-.47l.33.69c-.25.23-.56.4-.93.53-.37.12-.75.19-1.16.19Zm3.48-.1v-4.22c0-.21,0-.43-.02-.65s-.04-.44-.07-.66h.97l.11,1.19h-.13c.17-.42.43-.74.78-.96.35-.22.76-.33,1.23-.33.65,0,1.14.18,1.47.54.33.35.49.9.49,1.65v3.44h-1v-3.39c0-.51-.1-.87-.3-1.09-.2-.23-.51-.34-.92-.34-.5,0-.89.15-1.19.45-.29.3-.43.71-.43,1.22v3.15h-1Zm-62.86,10v-7.75h2.63c.87,0,1.6.15,2.19.45.6.3,1.06.74,1.36,1.32.31.57.46,1.27.46,2.1s-.15,1.53-.46,2.11c-.31.58-.76,1.02-1.36,1.32-.59.3-1.32.45-2.19.45h-2.63Zm1.02-.87h1.53c1.03,0,1.8-.25,2.3-.75s.75-1.25.75-2.27-.25-1.76-.75-2.25c-.5-.5-1.27-.75-2.3-.75h-1.53v6.02Zm9.64.97c-.88,0-1.58-.25-2.09-.76-.51-.51-.76-1.2-.76-2.09,0-.59.11-1.09.33-1.52.23-.43.54-.77.93-1,.4-.24.86-.36,1.39-.36s.93.11,1.29.33c.35.21.62.52.8.91s.27.86.27,1.41v.33h-4.23v-.59h3.55l-.19.14c0-.57-.13-1.02-.39-1.33-.25-.32-.62-.47-1.11-.47-.54,0-.95.19-1.24.56-.29.37-.44.87-.44,1.51v.1c0,.67.16,1.18.49,1.53.34.35.8.52,1.4.52.33,0,.64-.05.92-.14.29-.1.56-.25.82-.47l.33.69c-.25.23-.56.4-.93.53-.37.12-.75.19-1.16.19Zm5.03-.1l-2.36-5.53h1.08l1.93,4.75h-.31l1.96-4.75h1.02l-2.38,5.53h-.93Zm6.68.1c-.88,0-1.58-.25-2.09-.76-.51-.51-.76-1.2-.76-2.09,0-.59.11-1.09.33-1.52.23-.43.54-.77.93-1,.4-.24.86-.36,1.39-.36s.94.11,1.29.33c.35.21.62.52.8.91s.27.86.27,1.41v.33h-4.23v-.59h3.55l-.19.14c0-.57-.13-1.02-.39-1.33-.25-.32-.62-.47-1.11-.47-.54,0-.95.19-1.24.56-.29.37-.44.87-.44,1.51v.1c0,.67.16,1.18.49,1.53.34.35.8.52,1.4.52.33,0,.64-.05.92-.14.29-.1.56-.25.83-.47l.33.69c-.25.23-.56.4-.93.53-.37.12-.75.19-1.16.19Zm3.48-.1v-8.1h1v8.1h-1Zm5.01.1c-.54,0-1.01-.11-1.41-.34-.4-.24-.7-.57-.92-.99-.22-.43-.33-.95-.33-1.54s.11-1.09.33-1.52c.22-.43.53-.76.92-.99.4-.24.87-.35,1.41-.35s1.01.12,1.41.35c.4.23.71.56.92.99.22.43.33.93.33,1.52s-.11,1.11-.33,1.54c-.21.43-.52.76-.92.99-.4.23-.87.34-1.41.34Zm0-.79c.5,0,.9-.18,1.2-.53.3-.35.45-.87.45-1.55s-.15-1.19-.45-1.54c-.3-.35-.7-.52-1.2-.52s-.91.17-1.21.52c-.29.34-.44.86-.44,1.54s.15,1.2.44,1.55c.3.35.7.53,1.21.53Zm4.01,3.07v-6.6c0-.21,0-.43-.02-.65-.01-.22-.04-.44-.07-.66h.97l.12,1.28h-.12c.11-.42.34-.76.7-1,.36-.25.79-.37,1.29-.37s.92.11,1.29.34c.37.23.65.56.85.99.21.43.31.94.31,1.53s-.1,1.11-.31,1.54c-.2.43-.48.76-.85.99-.37.23-.8.34-1.29.34s-.92-.12-1.28-.36c-.35-.25-.59-.58-.72-1h.12v3.64h-1Zm2.64-3.07c.51,0,.91-.18,1.21-.53.3-.35.45-.87.45-1.55s-.15-1.19-.45-1.54c-.3-.35-.7-.52-1.21-.52s-.91.17-1.21.52c-.29.34-.44.86-.44,1.54s.15,1.2.44,1.55c.3.35.7.53,1.21.53Zm4.02.69v-4.22c0-.21,0-.43-.02-.65-.01-.22-.04-.44-.07-.66h.97l.11,1.19h-.13c.15-.41.38-.73.7-.95.32-.23.71-.34,1.16-.34s.83.11,1.12.33c.29.21.49.55.59,1.01h-.17c.14-.41.39-.74.74-.98.35-.24.76-.36,1.23-.36.61,0,1.07.18,1.38.54.31.35.46.9.46,1.65v3.44h-1v-3.39c0-.51-.09-.87-.26-1.09-.18-.23-.45-.34-.84-.34-.45,0-.8.15-1.06.46-.26.3-.39.71-.39,1.23v3.12h-1v-3.39c0-.51-.09-.87-.26-1.09-.17-.23-.45-.34-.84-.34-.45,0-.8.15-1.06.46-.25.3-.37.71-.37,1.23v3.12h-1Zm12.23.1c-.88,0-1.58-.25-2.09-.76-.51-.51-.76-1.2-.76-2.09,0-.59.11-1.09.33-1.52.23-.43.54-.77.93-1,.4-.24.86-.36,1.39-.36s.94.11,1.29.33c.35.21.62.52.8.91s.27.86.27,1.41v.33h-4.23v-.59h3.55l-.19.14c0-.57-.13-1.02-.38-1.33-.25-.32-.62-.47-1.11-.47-.54,0-.95.19-1.24.56-.29.37-.44.87-.44,1.51v.1c0,.67.16,1.18.49,1.53.34.35.8.52,1.4.52.33,0,.64-.05.92-.14s.56-.25.83-.47l.33.69c-.25.23-.56.4-.93.53-.37.12-.75.19-1.16.19Zm3.48-.1v-4.22c0-.21,0-.43-.02-.65-.01-.22-.04-.44-.07-.66h.97l.11,1.19h-.13c.17-.42.43-.74.78-.96s.76-.33,1.23-.33c.65,0,1.14.18,1.47.54.33.35.5.9.5,1.65v3.44h-1v-3.39c0-.51-.1-.87-.3-1.09-.2-.23-.51-.34-.92-.34-.5,0-.89.15-1.19.45-.29.3-.43.71-.43,1.22v3.15h-1Zm8.55.1c-.58,0-1.02-.16-1.32-.47-.29-.32-.44-.81-.44-1.45v-2.94h-1.08v-.77h1.08v-1.49l1-.28v1.76h1.56v.77h-1.56v2.85c0,.43.07.73.22.91.15.18.37.26.66.26.15,0,.27-.01.37-.03.11-.03.21-.06.3-.1v.83c-.11.04-.24.08-.39.1-.14.03-.28.04-.41.04Zm4.86-.1v-7.75h3.21c.83,0,1.46.2,1.9.59.44.4.66.94.66,1.64s-.22,1.25-.66,1.65c-.44.4-1.07.59-1.9.59h-2.19v3.28h-1.02Zm1.02-4.11h2.09c.54,0,.95-.12,1.23-.36.28-.25.42-.6.42-1.05s-.14-.79-.42-1.03-.69-.36-1.23-.36h-2.09v2.81Zm6.07,4.11v-8.1h1v8.1h-1Zm4.79.1c-.48,0-.91-.11-1.28-.34-.37-.23-.65-.56-.86-.99s-.31-.95-.31-1.54.1-1.1.31-1.53c.21-.43.49-.76.86-.99s.79-.34,1.28-.34.92.12,1.28.37c.37.24.61.58.73,1h-.13l.12-1.28h.97c-.02.22-.04.44-.07.66-.01.22-.02.44-.02.65v4.22h-1v-1.26h.12c-.12.42-.36.75-.73,1-.36.24-.78.36-1.26.36Zm.23-.79c.5,0,.9-.18,1.2-.53.3-.35.45-.87.45-1.55s-.15-1.19-.45-1.54c-.3-.35-.7-.52-1.2-.52s-.9.17-1.21.52c-.3.34-.45.86-.45,1.54s.15,1.2.45,1.55c.3.35.7.53,1.21.53Zm4.32.69v-4.22c0-.21,0-.43-.02-.65-.01-.22-.04-.44-.07-.66h.97l.11,1.19h-.13c.17-.42.43-.74.78-.96.35-.22.76-.33,1.23-.33.65,0,1.14.18,1.47.54.33.35.5.9.5,1.65v3.44h-1v-3.39c0-.51-.1-.87-.3-1.09-.2-.23-.51-.34-.92-.34-.5,0-.89.15-1.19.45-.29.3-.43.71-.43,1.22v3.15h-1Zm-87.06,10v-7.75h1.02v7.75h-1.02Zm2.79,0v-4.22c0-.21,0-.43-.02-.65s-.04-.44-.07-.66h.97l.11,1.19h-.13c.17-.42.43-.74.78-.96.35-.22.76-.33,1.23-.33.65,0,1.14.18,1.47.54.33.35.49.9.49,1.65v3.44h-1v-3.39c0-.51-.1-.87-.3-1.09-.2-.23-.51-.34-.92-.34-.5,0-.89.15-1.19.45-.29.3-.43.71-.43,1.22v3.15h-1Zm8.55.1c-.58,0-1.02-.16-1.32-.47-.29-.32-.44-.81-.44-1.45v-2.94h-1.08v-.77h1.08v-1.49l1-.28v1.76h1.56v.77h-1.56v2.85c0,.43.07.73.22.91.15.18.37.26.66.26.15,0,.27-.01.37-.03.11-.03.21-.06.3-.1v.82c-.11.04-.24.08-.39.1-.14.03-.27.04-.41.04Zm4.32,0c-.88,0-1.58-.25-2.09-.76-.51-.51-.76-1.2-.76-2.09,0-.59.11-1.09.33-1.52.23-.43.54-.77.93-1,.4-.24.86-.36,1.39-.36s.93.11,1.29.33c.35.21.62.52.8.91.18.4.27.87.27,1.41v.33h-4.23v-.59h3.55l-.19.14c0-.57-.13-1.02-.39-1.33-.25-.32-.62-.47-1.11-.47-.54,0-.95.19-1.24.56-.29.37-.44.87-.44,1.51v.1c0,.68.16,1.18.49,1.53.34.35.8.52,1.4.52.33,0,.64-.05.92-.14.29-.1.56-.25.82-.47l.33.69c-.25.23-.56.4-.93.53-.37.12-.75.19-1.16.19Zm3.46-.1v-4.18c0-.22,0-.44-.02-.67,0-.24-.03-.46-.05-.68h.97l.12,1.39h-.16c.07-.33.2-.6.37-.82.18-.23.4-.39.65-.5.26-.11.52-.17.79-.17.12,0,.22,0,.3.01.08,0,.16.03.24.06l-.02.89c-.11-.04-.21-.07-.31-.08-.09-.01-.2-.02-.33-.02-.32,0-.6.07-.84.22-.23.15-.4.34-.53.58-.12.24-.18.5-.18.78v3.19h-1Zm4.08,0v-4.22c0-.21,0-.43-.02-.65-.01-.22-.04-.44-.07-.66h.97l.11,1.19h-.13c.17-.42.43-.74.78-.96s.76-.33,1.23-.33c.65,0,1.14.18,1.47.54.33.35.49.9.49,1.65v3.44h-1v-3.39c0-.51-.1-.87-.3-1.09-.2-.23-.51-.34-.92-.34-.5,0-.89.15-1.19.45-.29.3-.43.71-.43,1.22v3.15h-1Zm8.59.1c-.48,0-.91-.11-1.28-.34-.37-.23-.65-.56-.86-.99s-.31-.95-.31-1.54.1-1.1.31-1.53c.21-.43.49-.76.86-.99.37-.23.79-.34,1.28-.34s.92.12,1.28.37c.37.24.61.58.73,1h-.13l.12-1.28h.97c-.02.22-.04.44-.07.66-.01.22-.02.44-.02.65v4.22h-1v-1.26h.12c-.12.42-.36.75-.73,1-.36.24-.78.36-1.26.36Zm.23-.79c.5,0,.9-.18,1.2-.53.3-.35.45-.87.45-1.55s-.15-1.19-.45-1.54-.7-.52-1.2-.52-.9.17-1.21.52c-.3.35-.45.86-.45,1.54s.15,1.2.45,1.55c.3.35.7.53,1.21.53Zm6.39.79c-.58,0-1.02-.16-1.32-.47-.29-.32-.44-.81-.44-1.45v-2.94h-1.08v-.77h1.08v-1.49l1-.28v1.76h1.56v.77h-1.56v2.85c0,.43.07.73.22.91.15.18.37.26.66.26.15,0,.27-.01.37-.03.11-.03.21-.06.3-.1v.82c-.11.04-.24.08-.38.1-.14.03-.28.04-.41.04Zm1.85-.1v-5.53h1v5.53h-1Zm-.09-6.74v-1.08h1.19v1.08h-1.19Zm5.09,6.84c-.54,0-1.01-.11-1.41-.34-.4-.24-.7-.57-.92-.99-.22-.43-.33-.95-.33-1.54s.11-1.09.33-1.52c.22-.43.53-.76.92-.99.4-.24.87-.35,1.41-.35s1.01.12,1.41.35c.4.23.71.56.92.99.22.42.33.93.33,1.52s-.11,1.11-.33,1.54c-.21.42-.52.75-.92.99-.4.23-.87.34-1.41.34Zm0-.79c.5,0,.9-.18,1.2-.53.3-.35.45-.87.45-1.55s-.15-1.19-.45-1.54c-.3-.35-.7-.52-1.2-.52s-.91.17-1.21.52c-.29.35-.44.86-.44,1.54s.15,1.2.44,1.55c.3.35.7.53,1.21.53Zm4.01.69v-4.22c0-.21,0-.43-.02-.65-.01-.22-.04-.44-.07-.66h.97l.11,1.19h-.13c.17-.42.43-.74.78-.96s.76-.33,1.23-.33c.65,0,1.14.18,1.47.54.33.35.49.9.49,1.65v3.44h-1v-3.39c0-.51-.1-.87-.3-1.09-.2-.23-.51-.34-.92-.34-.5,0-.89.15-1.19.45-.29.3-.43.71-.43,1.22v3.15h-1Zm8.59.1c-.48,0-.91-.11-1.28-.34-.37-.23-.65-.56-.86-.99-.21-.43-.31-.95-.31-1.54s.1-1.1.31-1.53c.21-.43.49-.76.86-.99.37-.23.79-.34,1.28-.34s.92.12,1.28.37c.37.24.61.58.73,1h-.13l.12-1.28h.97c-.02.22-.04.44-.07.66-.01.22-.02.44-.02.65v4.22h-1v-1.26h.12c-.12.42-.36.75-.73,1-.36.24-.78.36-1.26.36Zm.23-.79c.5,0,.9-.18,1.2-.53.3-.35.45-.87.45-1.55s-.15-1.19-.45-1.54c-.3-.35-.7-.52-1.2-.52s-.9.17-1.21.52c-.3.35-.45.86-.45,1.54s.15,1.2.45,1.55c.3.35.7.53,1.21.53Zm4.32.69v-8.1h1v8.1h-1Z"/>
    <path d="m42.65,171.09l3.43-7.75h.89l3.49,7.75h-1.06l-.96-2.2.44.26h-4.72l.48-.26-.96,2.2h-1.05Zm3.86-6.61l-1.72,4.07-.26-.23h3.99l-.21.23-1.76-4.07h-.04Zm6.74,6.71c-.45,0-.87-.06-1.25-.18-.38-.12-.7-.29-.95-.51l.32-.69c.27.21.57.36.89.47.33.1.67.15,1.01.15.42,0,.73-.08.95-.23.22-.15.33-.36.33-.62,0-.2-.07-.37-.21-.49-.14-.12-.36-.22-.66-.28l-1.05-.21c-.47-.11-.83-.29-1.07-.53-.23-.25-.35-.57-.35-.96,0-.32.09-.61.26-.86.18-.26.43-.46.75-.59.33-.15.71-.22,1.15-.22.4,0,.78.06,1.12.18.35.12.64.29.87.52l-.33.67c-.23-.2-.48-.35-.77-.45-.28-.11-.56-.17-.86-.17-.43,0-.74.08-.95.25-.21.16-.31.37-.31.64,0,.2.06.36.19.49.12.12.33.22.61.29l1.05.21c.49.1.86.27,1.11.51s.37.55.37.94c0,.34-.1.64-.29.89-.18.25-.44.44-.78.57-.33.13-.72.2-1.17.2Zm3.6-.1v-5.53h1v5.53h-1Zm-.09-6.74v-1.08h1.19v1.08h-1.19Zm4.87,6.84c-.48,0-.91-.11-1.28-.34-.37-.23-.65-.56-.86-.99-.21-.43-.31-.95-.31-1.54s.1-1.1.31-1.53c.21-.43.49-.76.86-.99.37-.23.79-.34,1.28-.34s.92.12,1.28.37c.37.24.61.58.73,1h-.13l.12-1.28h.97c-.02.22-.04.44-.07.66-.01.22-.02.44-.02.65v4.22h-1v-1.26h.12c-.12.42-.36.75-.73,1-.36.24-.78.36-1.27.36Zm.23-.79c.5,0,.9-.18,1.2-.53.3-.35.45-.87.45-1.55s-.15-1.19-.45-1.54c-.3-.35-.7-.52-1.2-.52s-.9.17-1.21.52c-.3.34-.45.86-.45,1.54s.15,1.2.45,1.55c.3.35.7.53,1.21.53Zm4.32.69v-4.22c0-.21,0-.43-.02-.65-.01-.22-.04-.44-.07-.66h.97l.11,1.19h-.13c.17-.42.43-.74.78-.96.35-.22.76-.33,1.23-.33.65,0,1.14.18,1.47.54.33.35.5.9.5,1.65v3.44h-1v-3.39c0-.51-.1-.87-.3-1.09-.2-.23-.51-.34-.92-.34-.5,0-.89.15-1.19.45-.29.3-.43.71-.43,1.22v3.15h-1Zm8.71,0l-2.72-7.75h1.08l2.3,6.84h-.4l2.44-6.84h.8l2.29,6.84h-.35l2.38-6.84h1.01l-2.74,7.75h-.89l-2.23-6.54h.23l-2.32,6.54h-.88Zm11.7.1c-.54,0-1.01-.11-1.41-.34-.4-.24-.7-.57-.92-.99-.22-.43-.33-.95-.33-1.54s.11-1.09.33-1.52c.22-.43.53-.76.92-.99.4-.24.87-.35,1.41-.35s1.01.12,1.41.35c.4.23.71.56.92.99.22.43.33.93.33,1.52s-.11,1.11-.33,1.54c-.21.43-.52.76-.92.99-.4.23-.87.34-1.41.34Zm0-.79c.5,0,.9-.18,1.2-.53.3-.35.45-.87.45-1.55s-.15-1.19-.45-1.54c-.3-.35-.7-.52-1.2-.52s-.91.17-1.21.52c-.29.34-.44.86-.44,1.54s.15,1.2.44,1.55c.3.35.7.53,1.21.53Zm4.01.69v-4.22c0-.21,0-.43-.02-.65-.01-.22-.04-.44-.07-.66h.97l.11,1.19h-.13c.15-.41.38-.73.7-.95.32-.23.71-.34,1.15-.34s.83.11,1.12.33c.29.21.49.55.59,1.01h-.17c.14-.41.39-.74.74-.98.35-.24.76-.36,1.23-.36.61,0,1.07.18,1.38.54.31.35.46.9.46,1.65v3.44h-1v-3.39c0-.51-.09-.87-.26-1.09-.18-.23-.45-.34-.84-.34-.45,0-.8.15-1.06.46-.26.3-.39.71-.39,1.23v3.12h-1v-3.39c0-.51-.09-.87-.26-1.09-.17-.23-.45-.34-.84-.34-.45,0-.8.15-1.06.46-.25.3-.37.71-.37,1.23v3.12h-1Zm12.23.1c-.88,0-1.58-.25-2.09-.76-.51-.51-.76-1.2-.76-2.09,0-.59.11-1.09.33-1.52.23-.43.54-.77.93-1,.4-.24.86-.36,1.39-.36s.94.11,1.29.33c.35.21.62.52.8.91.18.4.27.86.27,1.41v.33h-4.23v-.59h3.55l-.19.14c0-.57-.13-1.02-.39-1.33-.25-.32-.62-.47-1.11-.47-.54,0-.95.19-1.24.56-.29.37-.44.87-.44,1.51v.1c0,.67.17,1.18.5,1.53.34.35.8.52,1.4.52.33,0,.64-.05.92-.14.29-.1.56-.25.82-.47l.33.69c-.25.23-.56.4-.93.53-.37.12-.75.19-1.16.19Zm3.48-.1v-4.22c0-.21,0-.43-.02-.65s-.04-.44-.07-.66h.97l.11,1.19h-.13c.17-.42.43-.74.78-.96.35-.22.76-.33,1.23-.33.65,0,1.14.18,1.47.54.33.35.49.9.49,1.65v3.44h-1v-3.39c0-.51-.1-.87-.3-1.09-.2-.23-.51-.34-.92-.34-.5,0-.89.15-1.19.45-.29.3-.43.71-.43,1.22v3.15h-1Zm-62.86,10v-7.75h2.63c.87,0,1.6.15,2.19.45.6.3,1.06.74,1.36,1.32.31.57.46,1.27.46,2.1s-.15,1.53-.46,2.11c-.31.58-.76,1.02-1.36,1.32-.59.3-1.32.45-2.19.45h-2.63Zm1.02-.87h1.53c1.03,0,1.8-.25,2.3-.75s.75-1.25.75-2.27-.25-1.76-.75-2.25c-.5-.5-1.27-.75-2.3-.75h-1.53v6.02Zm9.64.97c-.88,0-1.58-.25-2.09-.76-.51-.51-.76-1.2-.76-2.09,0-.59.11-1.09.33-1.52.23-.43.54-.77.93-1,.4-.24.86-.36,1.39-.36s.93.11,1.29.33c.35.21.62.52.8.91s.27.86.27,1.41v.33h-4.23v-.59h3.55l-.19.14c0-.57-.13-1.02-.39-1.33-.25-.32-.62-.47-1.11-.47-.54,0-.95.19-1.24.56-.29.37-.44.87-.44,1.51v.1c0,.67.16,1.18.49,1.53.34.35.8.52,1.4.52.33,0,.64-.05.92-.14.29-.1.56-.25.82-.47l.33.69c-.25.23-.56.4-.93.53-.37.12-.75.19-1.16.19Zm5.03-.1l-2.36-5.53h1.08l1.93,4.75h-.31l1.96-4.75h1.02l-2.38,5.53h-.93Zm6.68.1c-.88,0-1.58-.25-2.09-.76-.51-.51-.76-1.2-.76-2.09,0-.59.11-1.09.33-1.52.23-.43.54-.77.93-1,.4-.24.86-.36,1.39-.36s.94.11,1.29.33c.35.21.62.52.8.91s.27.86.27,1.41v.33h-4.23v-.59h3.55l-.19.14c0-.57-.13-1.02-.39-1.33-.25-.32-.62-.47-1.11-.47-.54,0-.95.19-1.24.56-.29.37-.44.87-.44,1.51v.1c0,.67.16,1.18.49,1.53.34.35.8.52,1.4.52.33,0,.64-.05.92-.14.29-.1.56-.25.83-.47l.33.69c-.25.23-.56.4-.93.53-.37.12-.75.19-1.16.19Zm3.48-.1v-8.1h1v8.1h-1Zm5.01.1c-.54,0-1.01-.11-1.41-.34-.4-.24-.7-.57-.92-.99-.22-.43-.33-.95-.33-1.54s.11-1.09.33-1.52c.22-.43.53-.76.92-.99.4-.24.87-.35,1.41-.35s1.01.12,1.41.35c.4.23.71.56.92.99.22.43.33.93.33,1.52s-.11,1.11-.33,1.54c-.21.43-.52.76-.92.99-.4.23-.87.34-1.41.34Zm0-.79c.5,0,.9-.18,1.2-.53.3-.35.45-.87.45-1.55s-.15-1.19-.45-1.54c-.3-.35-.7-.52-1.2-.52s-.91.17-1.21.52c-.29.34-.44.86-.44,1.54s.15,1.2.44,1.55c.3.35.7.53,1.21.53Zm4.01,3.07v-6.6c0-.21,0-.43-.02-.65-.01-.22-.04-.44-.07-.66h.97l.12,1.28h-.12c.11-.42.34-.76.7-1,.36-.25.79-.37,1.29-.37s.92.11,1.29.34c.37.23.65.56.85.99.21.43.31.94.31,1.53s-.1,1.11-.31,1.54c-.2.43-.48.76-.85.99-.37.23-.8.34-1.29.34s-.92-.12-1.28-.36c-.35-.25-.59-.58-.72-1h.12v3.64h-1Zm2.64-3.07c.51,0,.91-.18,1.21-.53.3-.35.45-.87.45-1.55s-.15-1.19-.45-1.54c-.3-.35-.7-.52-1.21-.52s-.91.17-1.21.52c-.29.34-.44.86-.44,1.54s.15,1.2.44,1.55c.3.35.7.53,1.21.53Zm4.02.69v-4.22c0-.21,0-.43-.02-.65-.01-.22-.04-.44-.07-.66h.97l.11,1.19h-.13c.15-.41.38-.73.7-.95.32-.23.71-.34,1.16-.34s.83.11,1.12.33c.29.21.49.55.59,1.01h-.17c.14-.41.39-.74.74-.98.35-.24.76-.36,1.23-.36.61,0,1.07.18,1.38.54.31.35.46.9.46,1.65v3.44h-1v-3.39c0-.51-.09-.87-.26-1.09-.18-.23-.45-.34-.84-.34-.45,0-.8.15-1.06.46-.26.3-.39.71-.39,1.23v3.12h-1v-3.39c0-.51-.09-.87-.26-1.09-.17-.23-.45-.34-.84-.34-.45,0-.8.15-1.06.46-.25.3-.37.71-.37,1.23v3.12h-1Zm12.23.1c-.88,0-1.58-.25-2.09-.76-.51-.51-.76-1.2-.76-2.09,0-.59.11-1.09.33-1.52.23-.43.54-.77.93-1,.4-.24.86-.36,1.39-.36s.94.11,1.29.33c.35.21.62.52.8.91s.27.86.27,1.41v.33h-4.23v-.59h3.55l-.19.14c0-.57-.13-1.02-.38-1.33-.25-.32-.62-.47-1.11-.47-.54,0-.95.19-1.24.56-.29.37-.44.87-.44,1.51v.1c0,.67.16,1.18.49,1.53.34.35.8.52,1.4.52.33,0,.64-.05.92-.14s.56-.25.83-.47l.33.69c-.25.23-.56.4-.93.53-.37.12-.75.19-1.16.19Zm3.48-.1v-4.22c0-.21,0-.43-.02-.65-.01-.22-.04-.44-.07-.66h.97l.11,1.19h-.13c.17-.42.43-.74.78-.96s.76-.33,1.23-.33c.65,0,1.14.18,1.47.54.33.35.5.9.5,1.65v3.44h-1v-3.39c0-.51-.1-.87-.3-1.09-.2-.23-.51-.34-.92-.34-.5,0-.89.15-1.19.45-.29.3-.43.71-.43,1.22v3.15h-1Zm8.55.1c-.58,0-1.02-.16-1.32-.47-.29-.32-.44-.81-.44-1.45v-2.94h-1.08v-.77h1.08v-1.49l1-.28v1.76h1.56v.77h-1.56v2.85c0,.43.07.73.22.91.15.18.37.26.66.26.15,0,.27-.01.37-.03.11-.03.21-.06.3-.1v.83c-.11.04-.24.08-.39.1-.14.03-.28.04-.41.04Zm4.86-.1v-7.75h3.21c.83,0,1.46.2,1.9.59.44.4.66.94.66,1.64s-.22,1.25-.66,1.65c-.44.4-1.07.59-1.9.59h-2.19v3.28h-1.02Zm1.02-4.11h2.09c.54,0,.95-.12,1.23-.36.28-.25.42-.6.42-1.05s-.14-.79-.42-1.03-.69-.36-1.23-.36h-2.09v2.81Zm6.07,4.11v-8.1h1v8.1h-1Zm4.79.1c-.48,0-.91-.11-1.28-.34-.37-.23-.65-.56-.86-.99s-.31-.95-.31-1.54.1-1.1.31-1.53c.21-.43.49-.76.86-.99s.79-.34,1.28-.34.92.12,1.28.37c.37.24.61.58.73,1h-.13l.12-1.28h.97c-.02.22-.04.44-.07.66-.01.22-.02.44-.02.65v4.22h-1v-1.26h.12c-.12.42-.36.75-.73,1-.36.24-.78.36-1.26.36Zm.23-.79c.5,0,.9-.18,1.2-.53.3-.35.45-.87.45-1.55s-.15-1.19-.45-1.54c-.3-.35-.7-.52-1.2-.52s-.9.17-1.21.52c-.3.34-.45.86-.45,1.54s.15,1.2.45,1.55c.3.35.7.53,1.21.53Zm4.32.69v-4.22c0-.21,0-.43-.02-.65-.01-.22-.04-.44-.07-.66h.97l.11,1.19h-.13c.17-.42.43-.74.78-.96.35-.22.76-.33,1.23-.33.65,0,1.14.18,1.47.54.33.35.5.9.5,1.65v3.44h-1v-3.39c0-.51-.1-.87-.3-1.09-.2-.23-.51-.34-.92-.34-.5,0-.89.15-1.19.45-.29.3-.43.71-.43,1.22v3.15h-1Zm-87.06,10v-7.75h1.02v7.75h-1.02Zm2.79,0v-4.22c0-.21,0-.43-.02-.65s-.04-.44-.07-.66h.97l.11,1.19h-.13c.17-.42.43-.74.78-.96.35-.22.76-.33,1.23-.33.65,0,1.14.18,1.47.54.33.35.49.9.49,1.65v3.44h-1v-3.39c0-.51-.1-.87-.3-1.09-.2-.23-.51-.34-.92-.34-.5,0-.89.15-1.19.45-.29.3-.43.71-.43,1.22v3.15h-1Zm8.55.1c-.58,0-1.02-.16-1.32-.47-.29-.32-.44-.81-.44-1.45v-2.94h-1.08v-.77h1.08v-1.49l1-.28v1.76h1.56v.77h-1.56v2.85c0,.43.07.73.22.91.15.18.37.26.66.26.15,0,.27-.01.37-.03.11-.03.21-.06.3-.1v.82c-.11.04-.24.08-.39.1-.14.03-.27.04-.41.04Zm4.32,0c-.88,0-1.58-.25-2.09-.76-.51-.51-.76-1.2-.76-2.09,0-.59.11-1.09.33-1.52.23-.43.54-.77.93-1,.4-.24.86-.36,1.39-.36s.93.11,1.29.33c.35.21.62.52.8.91.18.4.27.87.27,1.41v.33h-4.23v-.59h3.55l-.19.14c0-.57-.13-1.02-.39-1.33-.25-.32-.62-.47-1.11-.47-.54,0-.95.19-1.24.56-.29.37-.44.87-.44,1.51v.1c0,.68.16,1.18.49,1.53.34.35.8.52,1.4.52.33,0,.64-.05.92-.14.29-.1.56-.25.82-.47l.33.69c-.25.23-.56.4-.93.53-.37.12-.75.19-1.16.19Zm3.46-.1v-4.18c0-.22,0-.44-.02-.67,0-.24-.03-.46-.05-.68h.97l.12,1.39h-.16c.07-.33.2-.6.37-.82.18-.23.4-.39.65-.5.26-.11.52-.17.79-.17.12,0,.22,0,.3.01.08,0,.16.03.24.06l-.02.89c-.11-.04-.21-.07-.31-.08-.09-.01-.2-.02-.33-.02-.32,0-.6.07-.84.22-.23.15-.4.34-.53.58-.12.24-.18.5-.18.78v3.19h-1Zm4.08,0v-4.22c0-.21,0-.43-.02-.65-.01-.22-.04-.44-.07-.66h.97l.11,1.19h-.13c.17-.42.43-.74.78-.96s.76-.33,1.23-.33c.65,0,1.14.18,1.47.54.33.35.49.9.49,1.65v3.44h-1v-3.39c0-.51-.1-.87-.3-1.09-.2-.23-.51-.34-.92-.34-.5,0-.89.15-1.19.45-.29.3-.43.71-.43,1.22v3.15h-1Zm8.59.1c-.48,0-.91-.11-1.28-.34-.37-.23-.65-.56-.86-.99s-.31-.95-.31-1.54.1-1.1.31-1.53c.21-.43.49-.76.86-.99.37-.23.79-.34,1.28-.34s.92.12,1.28.37c.37.24.61.58.73,1h-.13l.12-1.28h.97c-.02.22-.04.44-.07.66-.01.22-.02.44-.02.65v4.22h-1v-1.26h.12c-.12.42-.36.75-.73,1-.36.24-.78.36-1.26.36Zm.23-.79c.5,0,.9-.18,1.2-.53.3-.35.45-.87.45-1.55s-.15-1.19-.45-1.54-.7-.52-1.2-.52-.9.17-1.21.52c-.3.35-.45.86-.45,1.54s.15,1.2.45,1.55c.3.35.7.53,1.21.53Zm6.39.79c-.58,0-1.02-.16-1.32-.47-.29-.32-.44-.81-.44-1.45v-2.94h-1.08v-.77h1.08v-1.49l1-.28v1.76h1.56v.77h-1.56v2.85c0,.43.07.73.22.91.15.18.37.26.66.26.15,0,.27-.01.37-.03.11-.03.21-.06.3-.1v.82c-.11.04-.24.08-.38.1-.14.03-.28.04-.41.04Zm1.85-.1v-5.53h1v5.53h-1Zm-.09-6.74v-1.08h1.19v1.08h-1.19Zm5.09,6.84c-.54,0-1.01-.11-1.41-.34-.4-.24-.7-.57-.92-.99-.22-.43-.33-.95-.33-1.54s.11-1.09.33-1.52c.22-.43.53-.76.92-.99.4-.24.87-.35,1.41-.35s1.01.12,1.41.35c.4.23.71.56.92.99.22.42.33.93.33,1.52s-.11,1.11-.33,1.54c-.21.42-.52.75-.92.99-.4.23-.87.34-1.41.34Zm0-.79c.5,0,.9-.18,1.2-.53.3-.35.45-.87.45-1.55s-.15-1.19-.45-1.54c-.3-.35-.7-.52-1.2-.52s-.91.17-1.21.52c-.29.35-.44.86-.44,1.54s.15,1.2.44,1.55c.3.35.7.53,1.21.53Zm4.01.69v-4.22c0-.21,0-.43-.02-.65-.01-.22-.04-.44-.07-.66h.97l.11,1.19h-.13c.17-.42.43-.74.78-.96s.76-.33,1.23-.33c.65,0,1.14.18,1.47.54.33.35.49.9.49,1.65v3.44h-1v-3.39c0-.51-.1-.87-.3-1.09-.2-.23-.51-.34-.92-.34-.5,0-.89.15-1.19.45-.29.3-.43.71-.43,1.22v3.15h-1Zm8.59.1c-.48,0-.91-.11-1.28-.34-.37-.23-.65-.56-.86-.99-.21-.43-.31-.95-.31-1.54s.1-1.1.31-1.53c.21-.43.49-.76.86-.99.37-.23.79-.34,1.28-.34s.92.12,1.28.37c.37.24.61.58.73,1h-.13l.12-1.28h.97c-.02.22-.04.44-.07.66-.01.22-.02.44-.02.65v4.22h-1v-1.26h.12c-.12.42-.36.75-.73,1-.36.24-.78.36-1.26.36Zm.23-.79c.5,0,.9-.18,1.2-.53.3-.35.45-.87.45-1.55s-.15-1.19-.45-1.54c-.3-.35-.7-.52-1.2-.52s-.9.17-1.21.52c-.3.35-.45.86-.45,1.54s.15,1.2.45,1.55c.3.35.7.53,1.21.53Zm4.32.69v-8.1h1v8.1h-1Z"/>
    <line class="cls-5" x1="375.25" y1="68.36" x2="354.13" y2="113.48"/>
    <path class="cls-1" d="m89.94,115.45h-11.58l-5.32-11.89,4.44,3.13h-25.92l4.38-3.13-5.26,11.89h-11.58l20.66-43.2h9.39m0,0l20.78,43.2m-25.54-31.56l-7.32,17.1-1.75-2.88h18.34l-1.56,2.88-7.39-17.1h-.31Z"/>
    <path class="cls-1" d="m66.09,53.74h-11.84l-5.44-12.42,4.54,3.26h-26.5l4.48-3.26-5.38,12.42h-11.84L35.25,8.62h9.6m0,0l21.25,45.12m-26.11-32.96l-7.49,17.86-1.79-3.01h18.75l-1.6,3.01-7.55-17.86h-.32Z"/>
    <path class="cls-1" d="m142.95,72.1c-7.24,14.4-14.49,28.8-21.73,43.2h-9.41c-3.56-9.49-7.11-18.97-10.67-28.46h1.52c-3.63,9.49-7.27,18.97-10.9,28.46h-9.76c-7.29-14.4-14.58-28.8-21.87-43.2h12.84c4.71,10.38,9.41,20.77,14.12,31.15-.43,0-.87,0-1.3,0,4.02-10.38,8.05-20.76,12.07-31.13h8.94c3.75,9.99,7.51,19.99,11.26,29.98-.25.31-.49.61-.74.92,4.67-10.31,9.34-20.61,14-30.92h11.63Z"/>
    <path class="cls-1" d="m147.39,10.01c-7.04,15.05-14.08,30.09-21.12,45.14h-9.14c-3.46-9.91-6.91-19.82-10.37-29.73h1.47c-3.53,9.91-7.06,19.82-10.59,29.73h-9.49c-7.08-15.05-14.17-30.09-21.25-45.14h12.48c4.57,10.85,9.15,21.7,13.72,32.55-.42,0-.84,0-1.26,0,3.91-10.84,7.82-21.68,11.73-32.53h8.69c3.65,10.44,7.3,20.88,10.95,31.33-.24.32-.48.64-.72.96,4.54-10.77,9.07-21.54,13.61-32.3h11.31Z"/>
  </g>
  <g id="Layer_2" data-name="Layer 2">
    <line class="cls-3" x1="145.87" y1="65.87" x2="83.81" y2="198.46"/>
    <line class="cls-3" x1="62.11" y1="64.5" x2=".05" y2="197.08"/>
    <line class="cls-3" x1="273.77" y1="55.69" x2="211.71" y2="188.28"/>
    <line class="cls-3" x1="193.92" y1="52.96" x2="131.86" y2="185.54"/>
    <path class="cls-3" d="m94.31,117.81c-7.76-18.37-15.53-36.75-23.29-55.12"/>
    <path class="cls-3" d="m56.6,59.16c-7.76-18.37-15.53-36.75-23.29-55.12"/>
    <path class="cls-3" d="m98.36,113.29c-7.76-18.37-15.53-36.75-23.29-55.12"/>
    <path class="cls-3" d="m98.24,55.14C90.48,36.77,82.71,18.39,74.95.02"/>
  </g>
</svg>